P3
# CREATOR: XV Version 3.10  Rev: 12/16/94
24 24
255
178 192 220 255 255 255   0   0   0  64  64  64 127 127 127 
191 191 191 128 128 128 255   0   0 128 128 128  46 139  87 
  0 205   0   0 255   0   0   0 128   0   0 255  30 144 255 
218 165  32 255 215   0 255 255   0 176  48  96 255   0 255 
255 192 203 128 128 128   0 238 238   0 255 255 210 105  30 
238 118   0 255 165   0 160  82  45 205 133  63 240 230 140 
178 192 220 178 192 220 178 192 220 178 192 220 178 192 220 
178 192 220 178 192 220 178 192 220 178 192 220 178 192 220 
178 192 220 178 192 220 178 192 220 178 192 220 178 192 220 
178 192 220 178 192 220 178 192 220 178 192 220 178 192 220 
178 192 220 178 192 220 178 192 220 178 192 220 178 192 220 
178 192 220 178 192 220 178 192 220 178 192 220 178 192 220 
178 192 220 178 192 220 178 192 220 178 192 220 178 192 220 
178 192 220 178 192 220 178 192 220 178 192 220 178 192 220 
178 192 220 178 192 220 178 192 220 178 192 220 178 192 220 
178 192 220 178 192 220 178 192 220 178 192 220 178 192 220 
178 192 220 178 192 220 178 192 220 178 192 220 178 192 220 
178 192 220 178 192 220 178 192 220 178 192 220 178 192 220 
178 192 220 178 192 220 178 192 220 178 192 220 178 192 220 
178 192 220 178 192 220 178 192 220 178 192 220 178 192 220 
178 192 220 178 192 220 178 192 220 178 192 220 178 192 220 
178 192 220 178 192 220 178 192 220 178 192 220 178 192 220 
178 192 220 178 192 220 178 192 220 178 192 220 178 192 220 
178 192 220 178 192 220 178 192 220 178 192 220 178 192 220 
178 192 220 178 192 220 178 192 220 178 192 220 178 192 220 
178 192 220 178 192 220 178 192 220 178 192 220 178 192 220 
178 192 220 178 192 220 178 192 220 178 192 220 178 192 220 
178 192 220 178 192 220 178 192 220 178 192 220 178 192 220 
178 192 220 178 192 220 178 192 220 178 192 220 178 192 220 
178 192 220 178 192 220 178 192 220 178 192 220 178 192 220 
178 192 220 178 192 220 178 192 220 178 192 220 178 192 220 
178 192 220 178 192 220 178 192 220 178 192 220 178 192 220 
178 192 220 178 192 220 178 192 220 178 192 220 178 192 220 
178 192 220 178 192 220 178 192 220 178 192 220 178 192 220 
178 192 220 178 192 220 178 192 220 178 192 220 178 192 220 
178 192 220 178 192 220 178 192 220 178 192 220 178 192 220 
178 192 220 178 192 220 178 192 220 178 192 220 178 192 220 
178 192 220 178 192 220 178 192 220 178 192 220 178 192 220 
178 192 220 178 192 220 178 192 220 178 192 220 178 192 220 
178 192 220 178 192 220 178 192 220 178 192 220 178 192 220 
178 192 220 178 192 220 178 192 220 178 192 220 178 192 220 
178 192 220 178 192 220 178 192 220 178 192 220 178 192 220 
178 192 220 178 192 220 178 192 220 178 192 220 178 192 220 
178 192 220 178 192 220 178 192 220 178 192 220 178 192 220 
178 192 220 178 192 220 178 192 220 178 192 220 178 192 220 
178 192 220 178 192 220 178 192 220 178 192 220 178 192 220 
178 192 220 178 192 220 178 192 220 178 192 220 178 192 220 
178 192 220 178 192 220 178 192 220 178 192 220 178 192 220 
178 192 220 178 192 220 178 192 220 178 192 220 178 192 220 
178 192 220 178 192 220 178 192 220 178 192 220 178 192 220 
178 192 220 178 192 220 178 192 220 178 192 220 178 192 220 
178 192 220 178 192 220 178 192 220 178 192 220 178 192 220 
178 192 220 178 192 220 178 192 220 178 192 220 178 192 220 
178 192 220 178 192 220 178 192 220 178 192 220 178 192 220 
178 192 220 178 192 220 178 192 220 178 192 220 178 192 220 
178 192 220 178 192 220 178 192 220 178 192 220 178 192 220 
178 192 220 178 192 220 178 192 220 178 192 220 178 192 220 
178 192 220 178 192 220 178 192 220 178 192 220 178 192 220 
178 192 220 178 192 220 178 192 220 178 192 220 178 192 220 
178 192 220 178 192 220 178 192 220 178 192 220 178 192 220 
178 192 220 178 192 220 178 192 220 178 192 220 178 192 220 
178 192 220 178 192 220 178 192 220 178 192 220 178 192 220 
178 192 220 178 192 220 178 192 220 178 192 220 178 192 220 
178 192 220 178 192 220 178 192 220 178 192 220 178 192 220 
178 192 220 178 192 220 178 192 220 178 192 220 178 192 220 
178 192 220 178 192 220 178 192 220 178 192 220 178 192 220 
178 192 220 178 192 220 178 192 220 178 192 220 178 192 220 
178 192 220 178 192 220 178 192 220 178 192 220 178 192 220 
178 192 220 178 192 220 178 192 220 178 192 220 178 192 220 
178 192 220 178 192 220 178 192 220 178 192 220 178 192 220 
178 192 220 178 192 220 178 192 220 178 192 220 178 192 220 
178 192 220 178 192 220 178 192 220 178 192 220 178 192 220 
178 192 220 178 192 220 178 192 220 178 192 220 178 192 220 
178 192 220 178 192 220 178 192 220 178 192 220 178 192 220 
178 192 220 178 192 220 178 192 220 178 192 220 178 192 220 
178 192 220 178 192 220 178 192 220 178 192 220 178 192 220 
178 192 220 178 192 220 178 192 220 178 192 220 178 192 220 
178 192 220 178 192 220 178 192 220 178 192 220 178 192 220 
178 192 220 178 192 220 178 192 220 178 192 220 178 192 220 
178 192 220 178 192 220 178 192 220 178 192 220 178 192 220 
178 192 220 178 192 220 178 192 220 178 192 220 178 192 220 
178 192 220 178 192 220 178 192 220 178 192 220 178 192 220 
178 192 220 178 192 220 178 192 220 178 192 220 178 192 220 
178 192 220 178 192 220 178 192 220 178 192 220 178 192 220 
178 192 220 178 192 220 178 192 220 178 192 220 178 192 220 
178 192 220 178 192 220 178 192 220 178 192 220 178 192 220 
178 192 220 178 192 220 178 192 220 178 192 220 178 192 220 
178 192 220 178 192 220 178 192 220 178 192 220 178 192 220 
178 192 220 178 192 220 178 192 220 178 192 220 178 192 220 
178 192 220 178 192 220 178 192 220 178 192 220 178 192 220 
178 192 220 178 192 220 178 192 220 178 192 220 178 192 220 
178 192 220 178 192 220 178 192 220 178 192 220 178 192 220 
178 192 220 178 192 220 178 192 220 178 192 220 178 192 220 
178 192 220 178 192 220 178 192 220 178 192 220 178 192 220 
178 192 220 178 192 220 178 192 220 178 192 220 178 192 220 
178 192 220 178 192 220 178 192 220 178 192 220 178 192 220 
178 192 220 178 192 220 178 192 220 178 192 220 178 192 220 
178 192 220 178 192 220 178 192 220 178 192 220 178 192 220 
178 192 220 178 192 220 178 192 220 178 192 220 178 192 220 
178 192 220 178 192 220 178 192 220 178 192 220 178 192 220 
178 192 220 178 192 220 178 192 220 178 192 220 178 192 220 
178 192 220 178 192 220 178 192 220 178 192 220 178 192 220 
178 192 220 178 192 220 178 192 220 178 192 220 178 192 220 
178 192 220 178 192 220 178 192 220 178 192 220 178 192 220 
178 192 220 178 192 220 178 192 220 178 192 220 178 192 220 
178 192 220 178 192 220 178 192 220 178 192 220 178 192 220 
178 192 220 178 192 220 178 192 220 178 192 220 178 192 220 
178 192 220 178 192 220 178 192 220 178 192 220 178 192 220 
178 192 220 178 192 220 178 192 220 178 192 220 178 192 220 
178 192 220 178 192 220 178 192 220 178 192 220 178 192 220 
178 192 220 178 192 220 178 192 220 178 192 220 178 192 220 
178 192 220 178 192 220 178 192 220 178 192 220 178 192 220 
178 192 220 178 192 220 178 192 220 178 192 220 178 192 220 
178 192 220 178 192 220 178 192 220 178 192 220 178 192 220 
178 192 220 178 192 220 178 192 220 178 192 220 178 192 220 
178 192 220 